# xmcd CD database file
#
# Track frame offsets:
#	151
#	16398
#	32243
#	43350
#	58375
#	75660
#	88699
#	104310
#	121397
#	134590
#	150195
#	160850
#
# Disc length: 2387 seconds
#
# Revision: 1
# Processed by: cddbd v1.5.2PL0 Copyright (c) Steve Scherf et al.
# Submitted via: jetAudio 5
#
DISCID=9c09510c
DTITLE=กุ้ง กิตติคุณ(คอรัส) - ทะเลไม่เคยหลับ
DYEAR=1900
DGENRE=
TTITLE0=ชาวดง
TTITLE1=ทัศนาจร
TTITLE2=ไหนว่าจะจำ
TTITLE3=คอยน้อง
TTITLE4=เป็นไปไม่ได้
TTITLE5=ชื่นรัก
TTITLE6=ทะเลไม่เคยหลับ
TTITLE7=ลำนำรัก
TTITLE8=ค่าของคน
TTITLE9=โอ้รัก
TTITLE10=หนาวเนื้อ
TTITLE11=ไม่มีวันที่เราจะพรากจากกัน
EXTD=
EXTT0=
EXTT1=
EXTT2=
EXTT3=
EXTT4=
EXTT5=
EXTT6=
EXTT7=
EXTT8=
EXTT9=
EXTT10=
EXTT11=
PLAYORDER=
